#!OML:ASF E:/inclinewalkrobotboard/Project1/Captureday1/Session1/subject1.ASF
:FULLY-SPECIFIED
:DEGREES
213
root 0 0 0 -1.136124001861686 -2.8535522268187266 -0.8480631199113133
lowerback 10.958307222361793 0.5646665904391351 0.4620407253029127
upperback -1.1462880805995646 0.8818480602897624 0.898231094750098
thorax -7.335248230534688 0.40633811864103037 0.4361719006883369
lowerneck -13.328645814240485 -1.377451105876338 0.2600725275059483
upperneck 19.043534625144556 -1.3604232118730804 -2.412672617212089
head 8.198255060640653 -0.7899005566103412 -1.0273720820611492
rclavicle -4.551093740520377E-16 -2.5167064301399957E-16
rhumerus -11.30946919503733 -6.46259670232436 -66.98618606678352
rradius 43.39384710148564
rwrist 12.236333033460781
rhand -23.75903689069602 -6.296422932036712
rfingers 7.125020000000132
rthumb 2.9423521653819122 -36.445254804990356
lclavicle -9.400031353880806E-16 -8.23221316409637E-16
lhumerus -10.901287479749278 -4.469736045736796 67.63572581192668
lradius 44.863796304157695
lwrist -5.898771443695777
lhand -33.82658210413649 -13.473771990794818
lfingers 7.125020000000124
lthumb -7.099188377337214 15.605622519773242
rfemur -31.971167273218796 1.0407745338795533 17.682366641531253
rtibia 54.08105738237161
rfoot 2.464131714700688 -8.050271304634801
rtoes 4.410808368673385
lfemur 17.796212663651957 -3.5866382711768496 -31.15429453124772
ltibia 20.912289615828644
lfoot -12.103613647974978 -6.204399538088522
ltoes -5.765287706593499
214
root 0 0 0 -1.1360275222444036 -2.853381441159146 -0.8481994316650023
lowerback 10.958220104091197 0.5645103799479716 0.4616964785346075
upperback -1.146063134182585 0.8817388344497352 0.8983773518155779
thorax -7.335256370856518 0.40628823198631286 0.4363100237507642
lowerneck -13.32841898910145 -1.3775368717970111 0.26010021399018973
upperneck 19.043128454745478 -1.3609144618318534 -2.4128295697427578
head 8.198233235067459 -0.7900166568064116 -1.0274052962031848
rclavicle -4.557138736690685E-16 -2.553676667455728E-16
rhumerus -11.257302127234652 -6.429033021544457 -66.95361044018489
rradius 43.44321513068196
rwrist 12.261459516192186
rhand -23.776415455754496 -6.3823732134676945
rfingers 7.125020000000132
rthumb 2.92479914912505 -36.531222076760486
lclavicle -9.34318703289507E-16 -8.252118729872612E-16
lhumerus -10.733603486740785 -4.510973272128956 67.51614591775879
lradius 44.997327249039024
lwrist -5.989585078390643
lhand -33.88472886661819 -13.783287633005987
lfingers 7.125020000000123
lthumb -7.154502284813395 15.302211796689381
rfemur -32.44281053802449 1.6580145678001235 17.79066270476865
rtibia 49.53479010287384
rfoot 1.038497476649674 -8.660109461603389
rtoes 3.4185381951005853
lfemur 18.71347050791904 -3.2678672816955956 -31.214364393216357
ltibia 23.424482666492686
lfoot -11.15299200983448 -7.406314308653223
ltoes -6.413950051240747
215
root 0 0 0 -0.9658166192477156 -2.893302469241305 -0.6615840800003054
lowerback 11.023472917760598 0.5821635277758492 0.41373123331808737
upperback -1.3659424404024392 0.8919907525625619 0.8005399478113369
thorax -7.613257217873589 0.4165172713548669 0.35556977657812344
lowerneck -12.841854615037093 -1.1798048040278397 0.541887622246743
upperneck 19.00915763710935 -1.051479967508466 -2.8113825095230864
head 8.10615304005253 -0.662344921124143 -1.1712480654169934
rclavicle -4.67361187842968E-16 -4.2237386643600477E-16
rhumerus -7.474770222364519 -3.898751463554392 -64.62014676340635
rradius 46.98928928217746
rwrist 14.044664405326905
rhand -25.038724582137153 -12.52551799425939
rfingers 7.125020000000115
rthumb 1.6622115573948282 -42.60406742251051
lclavicle -8.65588812859194E-16 -9.181474291288595E-16
lhumerus -5.489913117500139 -5.780777882649815 63.79420193754237
lradius 49.13460991341475
lwrist -8.796610100209309
lhand -35.667857589392895 -23.182191587351177
lfingers 7.1250200000001005
lthumb -8.855220753553349 5.916625496821098
rfemur -26.661005817667558 3.6421120249762606 20.78920584617891
rtibia 39.17177647683884
rfoot -4.02177414926801 -8.827814347340151
rtoes 1.8752437285010164
lfemur 9.706986230231669 -2.0850082196158017 -26.910046459089948
ltibia 31.570232166403986
lfoot -7.589266527849069 -7.803345934238316
ltoes -6.462798859025411
216
root 0 0 0 -1.1328926875549112 -2.854249319190472 -0.8444511245061421
lowerback 10.95933515295172 0.5647122223192241 0.46115634842454933
upperback -1.1495120416139362 0.8816574817693243 0.8970751240193947
thorax -7.340267065406603 0.4064648380926642 0.4350568544557549
lowerneck -13.319706156542948 -1.3738611842838102 0.265319374027082
upperneck 19.041799598334407 -1.355892713676715 -2.41920438972286
head 8.19686640932939 -0.7877730984036005 -1.0299242951526988
rclavicle -4.572596596746565E-16 -2.6916357645272055E-16
rhumerus -10.997116472669125 -6.260968499283756 -66.79386613632765
rradius 43.68271039162006
rwrist 12.382018241117777
rhand -23.86121296375724 -6.805693363625622
rfingers 7.125020000000131
rthumb 2.8362965088680525 -36.94476615405498
lclavicle -9.22842443465756E-16 -8.259015431511982E-16
lhumerus -10.246209486488809 -4.629667864114437 67.16335589963535
lradius 45.3861813867112
lwrist -6.261384250556645
lhand -34.056567875851755 -14.691026900629197
lfingers 7.12502000000012
lthumb -7.317197031370984 14.41084567035852
rfemur -27.538290005657615 4.186831619361818 20.74946260213554
rtibia 35.289389687480025
rfoot -4.761139783083026 -9.292444096747149
rtoes 1.357984478087235
lfemur 18.47039279298123 -2.3934831730120485 -30.38583093617035
ltibia 30.291433311310335
lfoot -8.22625232690353 -9.964287447265637
ltoes -7.443689995860063
217
root 0 0 0 -1.1504556687219905 -2.849388394783504 -0.864165096608869
lowerback 10.952573268193884 0.5626787229570197 0.46661016773580544
upperback -1.1272341032291635 0.880811901742253 0.9069516882029481
thorax -7.311147690567226 0.4054785806334121 0.4433454754244514
lowerneck -13.369328947887736 -1.3952452231808181 0.23576877492288179
upperneck 19.044248286394108 -1.3880022766269655 -2.3785133201780835
head 8.205747772366609 -0.8015946049499911 -1.0147063862533479
rclavicle -4.584946856768823E-16 -2.5849352416912016E-16
rhumerus -11.28924946423664 -6.451912329617931 -66.97270872365765
rradius 43.41139457366352
rwrist 12.24662056655142
rhand -23.765175114248635 -6.330192839037533
rfingers 7.125020000000132
rthumb 2.936520767000803 -36.48268437106238
lclavicle -9.333500131328543E-16 -8.246945369657952E-16
lhumerus -10.74502578217778 -4.509403169318772 67.52644816092096
lradius 44.98666746346662
lwrist -5.980278428315752
lhand -33.88127690906322 -13.767581194387688
lfingers 7.125020000000123
lthumb -7.150267694613458 15.327663823784858
rfemur -21.83106160499799 5.723461271994497 23.558838764095096
rtibia 28.453924401636833
rfoot -8.18449344974705 -8.893964888822298
rtoes 0.9669359379194613
lfemur 17.600291465020042 -2.139880277726246 -29.665583603300913
ltibia 32.801250744114924
lfoot -6.71733552946264 -10.829153360669752
ltoes -7.6727746316555
218
root 0 0 0 -1.1642540290160843 -2.845717603482406 -0.8793102804789468
lowerback 10.947299703171119 0.5611695888370226 0.47167418020098517
upperback -1.1094739633396926 0.879975728571074 0.9148634232977759
thorax -7.288018694680467 0.4047528033558321 0.4498894400044614
lowerneck -13.409205006497286 -1.4121494551755953 0.2125531071709474
upperneck 19.04609311376059 -1.4134886303064753 -2.3453601549913534
head 8.212957744937817 -0.8125982789220227 -1.0023435531281506
rclavicle -4.596663541972111E-16 -2.466416003133997E-16
rhumerus -11.5167866178275 -6.602413738227618 -67.11383668266056
rradius 43.194524903456326
rwrist 12.138277800364625
rhand -23.688615325969515 -5.954740026392816
rfingers 7.1250200000001325
rthumb 3.0146201568635167 -36.11305081944075
lclavicle -9.416996779788437E-16 -8.192550558354874E-16
lhumerus -11.180847472599005 -4.403520336582706 67.83895493026017
lradius 44.63912280862686
lwrist -5.742658042010475
lhand -33.73096031692947 -12.968694625524195
lfingers 7.1250200000001245
lthumb -7.00677941448255 16.12201681390691
rfemur -13.412624983944777 7.39394499218859 27.43295149852361
rtibia 22.363534159669516
rfoot -12.056807220259962 -7.906749488582296
rtoes 1.1209694011847915
lfemur 15.103555514405004 -1.7385853148976862 -28.156070078996287
ltibia 36.62199378685538
lfoot -4.353170148634781 -11.804965865601487
ltoes -7.704427689886637
219
root 0 0 0 -1.1778659330368066 -2.842394112709238 -0.893862847365116
lowerback 10.942209088637952 0.559811466764352 0.4772002279581992
upperback -1.0922980399176003 0.879221901835776 0.9224994577225599
thorax -7.265405139866635 0.40406077865595286 0.4561114983669279
lowerneck -13.448174293789634 -1.4287238243710216 0.19005766771728583
upperneck 19.04765234917413 -1.4381634056637949 -2.312701147535881
head 8.21986741148125 -0.8232632529369983 -0.9902505146301412
rclavicle -4.608973915627153E-16 -2.3277263184461407E-16
rhumerus -11.75700139038215 -6.761434806868252 -67.2640209016015
rradius 42.96442154928621
rwrist 12.023638953640344
rhand -23.607568064515547 -5.558220105445974
rfingers 7.125020000000133
rthumb 3.096930182184015 -35.72134583771323
lclavicle -9.554244267151641E-16 -8.161026921753316E-16
lhumerus -11.662379937199965 -4.286804987781473 68.1837616402371
lradius 44.25518620472245
lwrist -5.478774326803654
lhand -33.564938985282694 -12.083930708150932
lfingers 7.125020000000126
lthumb -6.848237163472447 16.9995670582315
rfemur -4.186813599187355 8.720660961380005 31.41103512637284
rtibia 19.20572255187509
rfoot -15.126502582836839 -6.459291497690634
rtoes 2.0169896322400342
lfemur 9.987644191432528 -1.0744998980562448 -25.30417065241495
ltibia 42.88401575182569
lfoot -0.415058095436347 -13.12029319087419
ltoes -7.4924506704524445
